<svg width="21" height="20" viewBox="0 0 21 20" fill="none" xmlns="http://www.w3.org/2000/svg">
<path d="M20.0405 15.0977L15.9701 11.0306C15.767 10.8274 15.767 10.4952 15.9701 10.292L16.5894 9.67274C17.0055 9.25668 17.1538 8.65355 16.9764 8.09235C16.8023 7.53438 16.3346 7.12154 15.7573 7.01833L7.92629 5.60566C7.41992 5.51535 6.90064 5.67661 6.53619 6.04107C6.17173 6.40553 6.01046 6.9248 6.10077 7.42794L7.51345 15.2589C7.61666 15.8363 8.02949 16.3039 8.58747 16.4781C9.14544 16.6523 9.7518 16.5039 10.1679 16.0911L10.7871 15.4718C10.9903 15.2686 11.3225 15.2686 11.5257 15.4718L15.5928 19.5421C15.8992 19.8485 16.2991 20.0001 16.7023 20.0001C17.1055 20.0001 17.5054 19.8485 17.8118 19.5421L20.0308 17.3231C20.65 16.7071 20.65 15.7105 20.0405 15.0977ZM19.2986 16.5781L17.0796 18.7971C16.8765 19.0003 16.5443 19.0003 16.3411 18.7971L12.2707 14.73C11.9643 14.4236 11.5644 14.272 11.1612 14.272C10.7581 14.272 10.3582 14.4236 10.0517 14.73L9.43249 15.3492C9.29058 15.4912 9.09384 15.5363 8.90677 15.4783C8.71648 15.4202 8.58424 15.2686 8.54877 15.0719L7.13609 7.24088C7.10384 7.06994 7.15867 6.90222 7.28123 6.77966C7.40379 6.6571 7.5715 6.60227 7.74567 6.63452L15.5767 8.0472C15.7734 8.08268 15.925 8.21491 15.9831 8.40521C16.0411 8.5955 15.9927 8.79224 15.854 8.93093L15.2348 9.55018C14.622 10.163 14.622 11.1564 15.2348 11.7692L19.3051 15.8363C19.5051 16.0427 19.5051 16.3749 19.2986 16.5781Z" fill="#FAF1E2"/>
<path d="M2.82458 1.58355C2.62139 1.38035 2.28918 1.38035 2.08599 1.58355C1.8828 1.78674 1.8828 2.11894 2.08599 2.32214L3.19549 3.43164C3.2987 3.53485 3.43093 3.58645 3.5664 3.58645C3.70186 3.58645 3.83409 3.53485 3.9373 3.43164C4.1405 3.22844 4.1405 2.89624 3.9373 2.69305L2.82458 1.58355Z" fill="#FAF1E2"/>
<path d="M3.11766 5.40531C3.11766 5.11503 2.88221 4.88281 2.59516 4.88281H1.02445C0.734174 4.88281 0.501953 5.11826 0.501953 5.40531C0.501953 5.69236 0.737399 5.92781 1.02445 5.92781H2.59516C2.88544 5.92781 3.11766 5.69559 3.11766 5.40531Z" fill="#FAF1E2"/>
<path d="M3.19549 7.37945L2.08599 8.48894C1.8828 8.69214 1.8828 9.02434 2.08599 9.22754C2.1892 9.33074 2.32143 9.38235 2.4569 9.38235C2.59236 9.38235 2.7246 9.33074 2.8278 9.22754L3.9373 8.11804C4.1405 7.91484 4.1405 7.58264 3.9373 7.37945C3.73088 7.17625 3.40191 7.17625 3.19549 7.37945Z" fill="#FAF1E2"/>
<path d="M8.2525 3.58645C8.38796 3.58645 8.5202 3.53485 8.62341 3.43164L9.73291 2.32214C9.9361 2.11894 9.9361 1.78674 9.73291 1.58355C9.52971 1.38035 9.19751 1.38035 8.99432 1.58355L7.88482 2.69305C7.68162 2.89624 7.68162 3.22844 7.88482 3.43164C7.9848 3.53485 8.11704 3.58645 8.2525 3.58645Z" fill="#FAF1E2"/>
<path d="M6.42976 2.09321V0.522496C6.42976 0.232221 6.19431 0 5.90726 0C5.62021 0 5.38477 0.235446 5.38477 0.522496V2.09321C5.38477 2.38349 5.62021 2.61571 5.90726 2.61571C6.19431 2.61571 6.42976 2.38349 6.42976 2.09321Z" fill="#FAF1E2"/>
</svg>
