<svg width="60" height="60" viewBox="0 0 60 60" fill="none" xmlns="http://www.w3.org/2000/svg">
<path d="M17.3711 49.869L49.8722 17.3679L42.6321 10.1278L10.131 42.6289L17.3711 49.869ZM28.4228 43.2829L18.4874 53.2182L17.9574 53.5677L2.16928 59.883C0.880472 60.3985 -0.398494 59.1195 0.117028 57.8307L6.43228 42.0426L6.78179 41.5125L16.7171 31.5772L0.46653 15.3267C-0.150035 14.7101 -0.150035 13.7105 0.46653 13.0939L13.097 0.463392C13.7136 -0.153173 14.7133 -0.153173 15.3298 0.463392L31.5804 16.714L46.9058 1.38858C48.7572 -0.462859 51.7567 -0.462859 53.6034 1.38858L58.61 6.39515C60.4629 8.24327 60.4629 11.2428 58.6114 13.0942L43.286 28.4196L59.5366 44.6702C60.1532 45.2867 60.1532 46.2864 59.5366 46.903L46.9061 59.5335C46.2895 60.15 45.2899 60.15 44.6733 59.5335L28.4228 43.2829ZM30.6555 41.0501L45.7897 56.1843L56.1874 45.7866L52.105 41.7041L50.0637 43.7453C48.5752 45.2338 46.3424 43.0011 47.8309 41.5125L49.8722 39.4713L45.7897 35.3888L40.5908 40.5877C39.1023 42.0762 36.8695 39.8434 38.3581 38.3549L43.5569 33.1561L41.0533 30.6524L30.6555 41.0501ZM18.9499 29.3445L29.3476 18.9467L26.8439 16.4431L24.8027 18.4843C23.3142 19.9728 21.0814 17.74 22.5699 16.2515L24.6112 14.2103L20.5287 10.1278L15.3298 15.3267C13.8413 16.8152 11.6085 14.5824 13.097 13.0939L18.2959 7.89504L14.2134 3.81256L3.8157 14.2103L18.9499 29.3445ZM14.5616 51.5252L8.47483 45.4384L4.41698 55.583L14.5616 51.5252ZM44.8649 7.89504L52.105 15.1351L56.3786 10.8615C56.9965 10.2436 56.9965 9.2456 56.3786 8.62935L51.3692 3.61993C50.7544 3.00353 49.7564 3.00353 49.1385 3.62136L44.8649 7.89504Z" fill="#3B3B3B"/>
</svg>
