<svg width="20" height="20" viewBox="0 0 20 20" fill="none" xmlns="http://www.w3.org/2000/svg">
<path d="M6.83995 9.22398L9.1199 6.89598L9.1199 14.96C9.1199 15.224 9.33586 15.4399 9.59986 15.4399C9.86387 15.4399 10.0798 15.224 10.0798 14.96L10.0798 6.91998L12.3598 9.1519C12.5518 9.34392 12.8639 9.34392 13.0318 9.1519C13.2238 8.95988 13.2238 8.64781 13.0318 8.4799L9.55181 5.0719L6.14382 8.55186C5.9518 8.74388 5.9518 9.05594 6.14382 9.22386C6.35995 9.41604 6.64795 9.41601 6.83995 9.22398Z" fill="#F39E41"/>
<path d="M3.98337 20L15.2154 20C17.3992 20 19.1992 18.2 19.1992 16.016L19.1992 4.78396C19.1992 2.59991 17.3992 0.799914 15.2154 0.799914L3.98337 0.799915C1.79916 0.799915 -0.000838847 2.59992 -0.000838656 4.78396L-0.000837674 16.016C-0.000837483 18.2 1.79916 20 3.9832 20L3.98337 20ZM0.959418 4.784C0.959418 3.10404 2.3275 1.76004 3.98337 1.76004L15.2154 1.75987C16.8953 1.75987 18.2393 3.12796 18.2393 4.78383L18.2393 16.0158C18.2393 17.6958 16.8712 19.0398 15.2154 19.0398L3.98337 19.0398C2.30342 19.0398 0.959419 17.6717 0.959419 16.0158L0.959418 4.784Z" fill="#F39E41"/>
</svg>
