<svg width="20" height="19" viewBox="0 0 20 19" fill="none" xmlns="http://www.w3.org/2000/svg">
<path d="M6.83996 8.62096L9.11991 6.37873L9.11991 14.1456C9.11991 14.3999 9.33587 14.6079 9.59986 14.6079C9.86387 14.6079 10.0798 14.3999 10.0798 14.1456L10.0798 6.40185L12.3598 8.55153C12.5518 8.73648 12.8639 8.73648 13.0318 8.55153C13.2238 8.36659 13.2238 8.06602 13.0318 7.90429L9.55182 4.62185L6.14383 7.9736C5.95181 8.15855 5.95181 8.45911 6.14383 8.62084C6.35996 8.80595 6.64796 8.80591 6.83996 8.62096Z" fill="white"/>
<path d="M3.98336 19L15.2154 19C17.3992 19 19.1992 17.2663 19.1992 15.1627L19.1992 4.34455C19.1992 2.24098 17.3992 0.507292 15.2153 0.507292L3.98336 0.507293C1.79914 0.507293 -0.000854106 2.24098 -0.000853915 4.34456L-0.000852933 15.1627C-0.000852742 17.2663 1.79914 19 3.98319 19L3.98336 19ZM0.959403 4.3446C0.959403 2.72653 2.32749 1.43205 3.98336 1.43205L15.2153 1.43189C16.8953 1.43189 18.2393 2.74957 18.2393 4.34443L18.2393 15.1626C18.2393 16.7807 16.8712 18.0752 15.2154 18.0752L3.98336 18.0752C2.3034 18.0752 0.959404 16.7575 0.959404 15.1626L0.959403 4.3446Z" fill="white"/>
</svg>
